<mxfile host="65bd71144e">
    <diagram id="eIUJY-2ey1hFwf5QeSYM" name="Page-1">
        <mxGraphModel dx="1094" dy="782" grid="1" gridSize="10" guides="1" tooltips="1" connect="1" arrows="1" fold="1" page="1" pageScale="1" pageWidth="850" pageHeight="1100" math="0" shadow="0">
            <root>
                <mxCell id="0"/>
                <mxCell id="1" parent="0"/>
                <mxCell id="2" value="" style="ellipse;whiteSpace=wrap;html=1;aspect=fixed;" vertex="1" parent="1">
                    <mxGeometry x="170" y="210" width="80" height="80" as="geometry"/>
                </mxCell>
                <mxCell id="3" value="" style="ellipse;whiteSpace=wrap;html=1;aspect=fixed;" vertex="1" parent="1">
                    <mxGeometry x="360" y="210" width="80" height="80" as="geometry"/>
                </mxCell>
                <mxCell id="5" value="" style="endArrow=none;html=1;exitX=0.5;exitY=0;exitDx=0;exitDy=0;entryX=0.5;entryY=0;entryDx=0;entryDy=0;" edge="1" parent="1" source="2" target="3">
                    <mxGeometry width="50" height="50" relative="1" as="geometry">
                        <mxPoint x="300" y="160" as="sourcePoint"/>
                        <mxPoint x="350" y="110" as="targetPoint"/>
                        <Array as="points">
                            <mxPoint x="300" y="110"/>
                        </Array>
                    </mxGeometry>
                </mxCell>
            </root>
        </mxGraphModel>
    </diagram>
    <diagram id="2vDRXBNBLIIUd_XtYuWC" name="Page-2">
        <mxGraphModel dx="1094" dy="782" grid="1" gridSize="10" guides="1" tooltips="1" connect="1" arrows="1" fold="1" page="1" pageScale="1" pageWidth="850" pageHeight="1100" math="0" shadow="0">
            <root>
                <mxCell id="FRyalH4_VsY2Z4qNwZuu-0"/>
                <mxCell id="FRyalH4_VsY2Z4qNwZuu-1" parent="FRyalH4_VsY2Z4qNwZuu-0"/>
                <mxCell id="FRyalH4_VsY2Z4qNwZuu-2" value="" style="ellipse;whiteSpace=wrap;html=1;" vertex="1" parent="FRyalH4_VsY2Z4qNwZuu-1">
                    <mxGeometry x="210" y="140" width="120" height="80" as="geometry"/>
                </mxCell>
                <mxCell id="FRyalH4_VsY2Z4qNwZuu-3" value="" style="ellipse;whiteSpace=wrap;html=1;" vertex="1" parent="FRyalH4_VsY2Z4qNwZuu-1">
                    <mxGeometry x="210" y="220" width="120" height="80" as="geometry"/>
                </mxCell>
            </root>
        </mxGraphModel>
    </diagram>
</mxfile>